<svg width="800" height="600" viewBox="0 0 800 600" fill="none" xmlns="http://www.w3.org/2000/svg">
  <!-- Background -->
  <rect width="800" height="600" fill="#1E1E1E"/>
  
  <!-- Header -->
  <rect x="0" y="0" width="800" height="60" fill="#2D2D2D"/>
  <rect x="20" y="20" width="120" height="20" rx="4" fill="#646CFF"/>
  
  <!-- Chat container -->
  <rect x="40" y="80" width="720" height="440" rx="8" fill="#2D2D2D" stroke="#404040" stroke-width="2"/>
  
  <!-- Messages -->
  <rect x="80" y="120" width="320" height="40" rx="8" fill="#404040"/>
  <rect x="80" y="180" width="500" height="80" rx="8" fill="#646CFF" opacity="0.8"/>
  <rect x="80" y="280" width="400" height="40" rx="8" fill="#404040"/>
  <rect x="500" y="400" width="200" height="40" rx="8" fill="#646CFF" opacity="0.8"/>
  
  <!-- Input area -->
  <rect x="40" y="540" width="640" height="60" rx="8" fill="#2D2D2D" stroke="#404040" stroke-width="2"/>
  <rect x="60" y="560" width="600" height="20" rx="4" fill="#404040"/>
  <rect x="700" y="550" width="40" height="40" rx="8" fill="#646CFF"/>
  
  <!-- Decorative elements -->
  <circle cx="750" cy="30" r="10" fill="#4CAF50"/>
  <circle cx="720" cy="30" r="10" fill="#FFC107"/>
  <circle cx="690" cy="30" r="10" fill="#FF5722"/>
</svg>
