<svg width="800" height="600" viewBox="0 0 800 600" fill="none" xmlns="http://www.w3.org/2000/svg">
  <!-- Background -->
  <rect width="800" height="600" fill="#1E1E1E"/>
  
  <!-- Header -->
  <rect x="0" y="0" width="800" height="60" fill="#2D2D2D"/>
  <rect x="20" y="20" width="150" height="20" rx="4" fill="#4CAF50"/>
  
  <!-- Main container -->
  <rect x="40" y="80" width="720" height="460" rx="8" fill="#2D2D2D" stroke="#404040" stroke-width="2"/>
  
  <!-- Input/Output sections -->
  <rect x="60" y="110" width="680" height="180" rx="6" fill="#1E1E1E" stroke="#404040"/>
  <rect x="60" y="330" width="680" height="180" rx="6" fill="#1E1E1E" stroke="#404040"/>
  
  <!-- Section labels -->
  <rect x="60" y="90" width="120" height="20" rx="4" fill="#4CAF50"/>
  <rect x="60" y="310" width="120" height="20" rx="4" fill="#4CAF50"/>
  
  <!-- Buttons -->
  <rect x="200" y="270" width="120" height="40" rx="6" fill="#4CAF50"/>
  <rect x="340" y="270" width="120" height="40" rx="6" fill="#2196F3"/>
  <rect x="480" y="270" width="120" height="40" rx="6" fill="#9C27B0"/>
  
  <!-- Sample text -->
  <rect x="80" y="140" width="200" height="20" rx="4" fill="#404040"/>
  <rect x="80" y="170" width="300" height="15" rx="4" fill="#404040"/>
  <rect x="80" y="195" width="280" height="15" rx="4" fill="#404040"/>
  <rect x="80" y="220" width="250" height="15" rx="4" fill="#404040"/>
  
  <rect x="80" y="360" width="200" height="20" rx="4" fill="#4CAF50" opacity="0.6"/>
  <rect x="80" y="390" width="300" height="15" rx="4" fill="#4CAF50" opacity="0.4"/>
  <rect x="80" y="415" width="280" height="15" rx="4" fill="#4CAF50" opacity="0.4"/>
  <rect x="80" y="440" width="250" height="15" rx="4" fill="#4CAF50" opacity="0.4"/>
  
  <!-- Key input -->
  <rect x="620" y="270" width="120" height="40" rx="6" fill="#2D2D2D" stroke="#404040"/>
  <rect x="630" y="280" width="100" height="20" rx="4" fill="#404040"/>
</svg>
